HIERARCHY
ROOT Hips
{
  OFFSET -236.109 92.8119 -217.004
  CHANNELS 6 Xposition Yposition Zposition Zrotation Xrotation Yrotation
  JOINT ToSpine
  {
    OFFSET -2.69724 7.43032 -0.144315
    CHANNELS 3 Zrotation Xrotation Yrotation
    JOINT Spine
    {
      OFFSET -0.0310711 10.7595 1.96963
      CHANNELS 3 Zrotation Xrotation Yrotation
      JOINT Spine1
      {
        OFFSET 13.1342 3.43533 0.764692
        CHANNELS 3 Zrotation Xrotation Yrotation
        JOINT Neck
        {
          OFFSET 29.8703 7.82586 -0.130764
          CHANNELS 3 Zrotation Xrotation Yrotation
          JOINT Head
          {
            OFFSET 9.52751 0.295786 -0.907742
            CHANNELS 3 Zrotation Xrotation Yrotation
            End Site
            {
              OFFSET 16.4037 0.713936 2.7358
            }
          }
        }
        JOINT LeftShoulder
        {
          OFFSET 27.5574 4.95586 2.47156
          CHANNELS 3 Zrotation Xrotation Yrotation
          JOINT LeftArm
          {
            OFFSET 1.20734 -0.998971 20.1238
            CHANNELS 3 Zrotation Xrotation Yrotation
            JOINT LeftForeArm
            {
              OFFSET 26.8049 -0.0536703 -0.155908
              CHANNELS 3 Zrotation Xrotation Yrotation
              JOINT LeftHand
              {
                OFFSET 26.6817 0 0.320147
                CHANNELS 3 Zrotation Xrotation Yrotation
                End Site
                {
                  OFFSET 18.6119 0 0.382219
                }
              }
            }
          }
        }
        JOINT RightShoulder
        {
          OFFSET 27.5927 4.71444 -2.65209
          CHANNELS 3 Zrotation Xrotation Yrotation
          JOINT RightArm
          {
            OFFSET 2.83739 -1.17114 -18.7564
            CHANNELS 3 Zrotation Xrotation Yrotation
            JOINT RightForeArm
            {
              OFFSET 28.839 -0.0548439 1.22491
              CHANNELS 3 Zrotation Xrotation Yrotation
              JOINT RightHand
              {
                OFFSET 26.5114 0 -0.101894
                CHANNELS 3 Zrotation Xrotation Yrotation
                End Site
                {
                  OFFSET 18.2168 0 0
                }
              }
            }
          }
        }
      }
    }
  }
  JOINT LeftUpLeg
  {
    OFFSET -4.76168 -1.9167 -10.2353
    CHANNELS 3 Zrotation Xrotation Yrotation
    JOINT LeftLeg
    {
      OFFSET 2.55951 -42.0585 -8.02213
      CHANNELS 3 Zrotation Xrotation Yrotation
      JOINT LeftFoot
      {
        OFFSET 3.16357 -42.5282 -3.95426
        CHANNELS 3 Zrotation Xrotation Yrotation
        JOINT LeftToeBase
        {
          OFFSET 0.346054 -6.02161 12.8035
          CHANNELS 3 Zrotation Xrotation Yrotation
          End Site
          {
            OFFSET 0.134235 -1.35082 5.13018
          }
        }
      }
    }
  }
  JOINT RightUpLeg
  {
    OFFSET -4.94151 -1.41743 10.6446
    CHANNELS 3 Zrotation Xrotation Yrotation
    JOINT RightLeg
    {
      OFFSET -2.56294 -42.0364 -7.94377
      CHANNELS 3 Zrotation Xrotation Yrotation
      JOINT RightFoot
      {
        OFFSET -3.0952 -42.555 -4.02241
        CHANNELS 3 Zrotation Xrotation Yrotation
        JOINT RightToeBase
        {
          OFFSET -0.0828122 -6.13587 12.8035
          CHANNELS 3 Zrotation Xrotation Yrotation
          End Site
          {
            OFFSET -0.131328 -1.35082 5.13018
          }
        }
      }
    }
  }
}
MOTION
Frames:	11
Frame Time:	0.0333333
-288.56 92.348 -272.225 55.5227 -42.7519 -23.4855 -70.1915 0 88.8779 84.3824 77.9717 8.23406 0.0716516 28.4787 -1.28079 -162.328 25.8368 175.536 -154.948 65.1401 -175.13 1.24085 -8.86661 -25.1104 -72.6585 62.0531 -46.704 16.6902 1.06675 -85.7725 0.420957 0.000575198 0.35866 -1.217 5.64809 36.4183 -66.4029 -45.2766 85.325 32.8892 3.29778 94.8443 0.58676 0.000330887 0.0646653 -16.0976 0.905247 95.2353 -3.01342 39.3798 -11.1786 -8.22796 6.08967 1.88281 6.00987 -13.8321 9.58566 -69.3068 7.85477 90.4546 3.41738 51.2073 3.60907 -2.27343 17.5581 -0.553399 2.26403 -18.444 -15.3909 
-280.905 92.0868 -263.866 58.0698 -43.7718 -22.851 -70.1915 0 88.8779 95.3653 77.6754 -6.76134 -2.82767 27.8385 1.59655 -161.029 24.7857 175.702 -158.16 64.3896 -170.895 1.29055 -8.63094 -26.1565 -74.7952 60.7259 -47.1842 16.379 0.924338 -86.1758 0.420957 0.000575198 0.35866 -1.39687 5.76808 39.0043 -67.0597 -43.9902 80.992 31.6396 0.591168 90.7372 0.58676 0.000330887 0.0646653 -22.3658 0.532163 99.39 -3.67686 43.7443 -13.4755 -4.51941 2.80059 0.82132 1.61915 -5.14302 5.14371 -63.7664 6.53285 89.0122 11.1979 69.497 7.81137 -15.1801 23.8792 3.37806 -1.01284 -27.2924 -51.3738 
-272.749 91.2937 -256.147 64.9527 -42.7409 -19.0445 -70.1915 0 88.8779 107.191 74.6256 -20.9577 -2.70621 25.6803 0.844166 -157.976 23.539 176.044 -159.134 63.2743 -167.485 1.27999 -8.85906 -28.2814 -75.4791 58.6492 -49.8815 17.3133 0.856327 -86.5647 0.420957 0.000575198 0.35866 -1.48817 5.70225 40.8569 -66.2779 -43.6932 77.7742 29.172 -2.70884 84.9644 0.58676 0.000330887 0.0646653 -31.6242 -3.81398 98.7577 -3.91017 49.4966 -8.04494 2.90061 -10.7871 -1.0436 -1.74408 2.22301 3.26106 -58.3122 0.832757 85.4481 9.86586 78.4198 -19.7795 -12.5298 8.21939 2.0222 2.2924 -18.5947 -2.67754 
-266.094 90.4509 -249.007 61.5413 -41.9574 -23.9715 -70.1915 0 88.8779 94.0833 74.2751 -11.7433 -2.28786 24.4715 1.26606 -158.848 21.8347 174.822 -158.774 61.5678 -167.608 1.19304 -9.41683 -30.0173 -75.1881 54.92 -56.6435 16.4601 0.886981 -86.3161 0.420957 0.000575198 0.35866 -1.66071 5.65156 44.0315 -68.1421 -41.8346 75.1236 27.0426 -6.4692 77.3918 0.58676 0.000330887 0.0646653 -33.4511 -6.37773 99.6105 -4.55442 53.2946 -7.85199 7.13255 -14.5438 -1.25279 1.71963 -6.98448 11.6791 -41.5274 -2.11482 87.4844 69.6433 87.4469 -81.753 -14.0801 2.8908 2.09952 2.55757 -21.3815 -3.72112 
-259.284 90.5075 -241.264 61.522 -39.8485 -24.3658 -70.1915 0 88.8779 87.0833 72.703 -6.1888 -0.0553282 22.7551 -0.110941 -159.563 20.5569 173.086 -158.104 60.1996 -168.74 0.778267 -11.5798 -29.5911 -73.6859 51.7028 -64.4563 16.0167 1.04305 -85.7075 0.420957 0.000575198 0.35866 -1.67836 5.07442 47.6312 -70.7725 -39.5874 70.6887 23.3069 -7.79771 72.3871 0.58676 0.000330887 0.0646653 -39.816 -7.79866 98.5262 -4.97787 53.4159 -10.782 4.14389 -18.1083 -1.41143 3.91924 -11.1285 15.1838 -29.2601 -3.64892 87.2807 72.2211 87.6211 -85.4726 -11.3557 -2.97869 1.55713 2.07826 -16.723 -1.42148 
-251.504 90.8649 -233.686 66.0014 -36.4734 -20.4249 -70.1915 0 88.8779 97.1468 68.7279 -18.2179 -3.17188 18.1197 2.96661 -158.439 19.2243 175.521 -157.296 58.8099 -169.476 0.921712 -10.8442 -29.0882 -71.6428 51.3412 -69.3077 17.8849 0.067356 -89.1019 0.420957 0.000575198 0.35866 -1.59498 5.03102 46.3682 -71.6395 -40.8508 64.8343 22.0566 -6.86605 73.4283 0.58676 0.000330887 0.0646653 -49.2508 -10.4685 92.8437 -4.8895 53.452 -9.9595 2.69585 -15.2793 -1.29345 7.1244 -15.7799 11.2804 -24.5476 -7.30297 84.9544 10.6741 79.8173 -22.1964 -14.5727 -0.70049 2.00259 2.58507 -28.2824 -10.6522 
-243.689 91.8178 -225.34 63.5897 -39.5044 -20.9388 -70.1915 0 88.8779 91.7668 69.2903 -7.89338 -1.18946 19.2305 0.484357 -156.944 18.027 174.996 -154.613 57.2823 -172.577 0.927868 -10.8427 -28.1191 -71.9613 51.097 -69.6038 17.7771 -1.25726 -93.1974 0.420957 0.000575198 0.35866 -1.49583 4.83637 45.6992 -72.4282 -41.4261 60.2521 22.0332 -5.80111 75.833 0.58676 0.000330887 0.0646653 -53.3091 -6.1979 94.9597 -5.23651 55.8101 -8.53151 -0.979291 -4.80757 -0.382127 11.613 -23.1249 8.33692 -20.8878 -3.27953 85.4293 1.7454 62.0126 -14.1333 -10.7375 -0.9656 1.52394 2.50361 -22.4781 -7.86448 
-236.109 92.8119 -217.004 65.1919 -38.3581 -18.1199 -70.1915 0 88.8779 92.4948 68.0117 -7.90648 -0.598505 17.5367 1.96569 -155.746 17.8511 175.085 -152.822 56.9083 -173.887 0.990507 -10.4922 -27.9061 -72.1184 51.2725 -69.4064 18.5541 -1.76842 -94.528 0.420957 0.000575198 0.35866 -1.49853 4.89447 45.392 -72.002 -40.4661 58.6591 21.7398 -5.22507 76.9864 0.58676 0.000330887 0.0646653 -53.4386 -4.04515 92.9462 -7.20489 63.2878 -5.79948 -3.95431 6.23911 1.11706 4.35787 -10.2978 4.93015 -24.8279 -2.35623 84.5333 0.891222 38.7349 -5.35003 -4.4659 5.42573 0.518097 2.24094 -21.7933 -14.799 
-228.38 92.7644 -208.81 66.7604 -38.3194 -16.6904 -70.1915 0 88.8779 95.4509 68.045 -9.88227 -0.267114 17.6114 2.33503 -154.598 18.5855 175.977 -153.104 57.7576 -172.512 0.866257 -11.1358 -29.2247 -72.7277 50.5103 -68.0079 18.9321 -0.978397 -92.1409 0.420957 0.000575198 0.35866 -1.49681 4.96024 44.9611 -72.8406 -38.5656 58.8693 22.2304 -4.98728 77.8376 0.58676 0.000330887 0.0646653 -50.2944 -2.89443 93.1778 -10.5678 72.8255 5.9861 0.00847679 4.89515 0.288632 3.00397 -6.2793 -0.828835 -28.023 -1.88321 84.1503 1.67225 27.0893 4.0764 -1.4869 14.782 -0.598248 2.04967 -23.6028 -18.4208 
-220.845 92.1934 -200.816 68.9542 -38.8603 -15.4916 -70.1915 0 88.8779 101.716 68.785 -15.1354 -0.245187 18.9061 1.44277 -152.513 19.8548 174.386 -150.056 58.8452 -173.924 0.6814 -12.0625 -29.8558 -71.5474 49.5036 -68.3205 20.6301 1.15064 -86.2748 0.420957 0.000575198 0.35866 -1.45991 4.8466 44.9439 -74.8447 -35.8744 60.8409 23.9735 -4.93668 78.8844 0.58676 0.000330887 0.0646653 -44.5392 -2.70524 93.7692 -19.325 79.2497 14.2459 2.39473 -1.31984 -0.473802 3.45775 -8.87837 6.30997 -29.5817 -1.38898 83.9341 1.68591 32.4823 4.1083 -0.547881 13.7911 -0.768497 2.33081 -9.26018 -14.8417 
-213.938 90.4905 -193.081 70.7024 -39.5866 -15.4228 -70.1915 0 88.8779 110.389 69.1183 -24.6732 -1.98699 20.2156 1.56736 -152.348 20.9579 174.113 -150.195 59.9629 -174.208 0.634299 -12.3461 -29.4601 -71.6154 49.3634 -66.78 18.4391 2.87573 -80.808 0.420957 0.000575198 0.35866 -1.42202 5.03651 43.1076 -74.8275 -35.9378 65.5427 24.9891 -5.49742 78.223 0.58676 0.000330887 0.0646653 -36.0162 -2.86778 95.1237 -25.1043 81.4062 20.6527 1.35645 -10.0071 -0.937526 3.4979 -9.81495 11.0122 -29.7825 -1.16344 84.5427 0.809836 47.7021 -9.84985 -9.61193 -4.222 1.36863 -0.430618 -7.51605 13.3036 
